#Wheel.obj

g Wheel

v 0 0 0
v 0 0 0.2
v 0.00 1.00 0.00
v 0.00 1.00 0.20
v 0.10 1.00 0.00
v 0.10 1.00 0.20
v 0.20 0.98 0.00
v 0.20 0.98 0.20
v 0.29 0.96 0.00
v 0.29 0.96 0.20
v 0.38 0.92 0.00
v 0.38 0.92 0.20
v 0.47 0.88 0.00
v 0.47 0.88 0.20
v 0.56 0.83 0.00
v 0.56 0.83 0.20
v 0.63 0.77 0.00
v 0.63 0.77 0.20
v 0.71 0.71 0.00
v 0.71 0.71 0.20
v 0.77 0.63 0.00
v 0.77 0.63 0.20
v 0.83 0.56 0.00
v 0.83 0.56 0.20
v 0.88 0.47 0.00
v 0.88 0.47 0.20
v 0.92 0.38 0.00
v 0.92 0.38 0.20
v 0.96 0.29 0.00
v 0.96 0.29 0.20
v 0.98 0.20 0.00
v 0.98 0.20 0.20
v 1.00 0.10 0.00
v 1.00 0.10 0.20
v 1.00 0.00 0.00
v 1.00 0.00 0.20
v 1.00 -0.10 0.00
v 1.00 -0.10 0.20
v 0.98 -0.20 0.00
v 0.98 -0.20 0.20
v 0.96 -0.29 0.00
v 0.96 -0.29 0.20
v 0.92 -0.38 0.00
v 0.92 -0.38 0.20
v 0.88 -0.47 0.00
v 0.88 -0.47 0.20
v 0.83 -0.56 0.00
v 0.83 -0.56 0.20
v 0.77 -0.63 0.00
v 0.77 -0.63 0.20
v 0.71 -0.71 0.00
v 0.71 -0.71 0.20
v 0.63 -0.77 0.00
v 0.63 -0.77 0.20
v 0.56 -0.83 0.00
v 0.56 -0.83 0.20
v 0.47 -0.88 0.00
v 0.47 -0.88 0.20
v 0.38 -0.92 0.00
v 0.38 -0.92 0.20
v 0.29 -0.96 0.00
v 0.29 -0.96 0.20
v 0.20 -0.98 0.00
v 0.20 -0.98 0.20
v 0.10 -1.00 0.00
v 0.10 -1.00 0.20
v 0.00 -1.00 0.00
v 0.00 -1.00 0.20
v -0.10 -1.00 0.00
v -0.10 -1.00 0.20
v -0.20 -0.98 0.00
v -0.20 -0.98 0.20
v -0.29 -0.96 0.00
v -0.29 -0.96 0.20
v -0.38 -0.92 0.00
v -0.38 -0.92 0.20
v -0.47 -0.88 0.00
v -0.47 -0.88 0.20
v -0.56 -0.83 0.00
v -0.56 -0.83 0.20
v -0.63 -0.77 0.00
v -0.63 -0.77 0.20
v -0.71 -0.71 0.00
v -0.71 -0.71 0.20
v -0.77 -0.63 0.00
v -0.77 -0.63 0.20
v -0.83 -0.56 0.00
v -0.83 -0.56 0.20
v -0.88 -0.47 0.00
v -0.88 -0.47 0.20
v -0.92 -0.38 0.00
v -0.92 -0.38 0.20
v -0.96 -0.29 0.00
v -0.96 -0.29 0.20
v -0.98 -0.20 0.00
v -0.98 -0.20 0.20
v -1.00 -0.10 0.00
v -1.00 -0.10 0.20
v -1.00 -0.00 0.00
v -1.00 -0.00 0.20
v -1.00 0.10 0.00
v -1.00 0.10 0.20
v -0.98 0.20 0.00
v -0.98 0.20 0.20
v -0.96 0.29 0.00
v -0.96 0.29 0.20
v -0.92 0.38 0.00
v -0.92 0.38 0.20
v -0.88 0.47 0.00
v -0.88 0.47 0.20
v -0.83 0.56 0.00
v -0.83 0.56 0.20
v -0.77 0.63 0.00
v -0.77 0.63 0.20
v -0.71 0.71 0.00
v -0.71 0.71 0.20
v -0.63 0.77 0.00
v -0.63 0.77 0.20
v -0.56 0.83 0.00
v -0.56 0.83 0.20
v -0.47 0.88 0.00
v -0.47 0.88 0.20
v -0.38 0.92 0.00
v -0.38 0.92 0.20
v -0.29 0.96 0.00
v -0.29 0.96 0.20
v -0.20 0.98 0.00
v -0.20 0.98 0.20
v -0.10 1.00 0.00
v -0.10 1.00 0.20

vn 0 0 1
vn 0 0 -1
vn 0.0009630546655606143 0.019603428065912122 -0.0
vn 0.0028798892537933 0.01941463633731353 -0.0
vn 0.004768988934204322 0.019038871047666817 -0.0
vn 0.006612160644184417 0.01847975102212549 -0.0
vn 0.008391653632586338 0.017742660892181572 -0.0
vn 0.010090330409161963 0.01683469923872091 -0.0
vn 0.011691831787961649 0.01576461022880866 -0.0
vn 0.013180734435237885 0.014542699404580417 -0.0
vn 0.014542699404580417 0.013180734435237863 -0.0
vn 0.01576461022880864 0.011691831787961671 -0.0
vn 0.016834699238720895 0.010090330409161942 -0.0
vn 0.017742660892181596 0.00839165363258636 -0.0
vn 0.018479751022125502 0.00661216064418444 -0.0
vn 0.0190388710476668 0.004768988934204299 -0.0
vn 0.019414636337313513 0.0028798892537932777 -0.0
vn 0.019603428065912143 0.0009630546655606365 -0.0
vn 0.019603428065912143 -0.0009630546655606143 0.0
vn 0.01941463633731351 -0.0028798892537933 0.0
vn 0.019038871047666796 -0.004768988934204299 0.0
vn 0.018479751022125512 -0.00661216064418444 0.0
vn 0.017742660892181596 -0.008391653632586338 0.0
vn 0.016834699238720854 -0.010090330409161942 0.0
vn 0.015764610228808686 -0.011691831787961649 0.0
vn 0.014542699404580417 -0.013180734435237908 0.0
vn 0.013180734435237908 -0.014542699404580417 0.0
vn 0.011691831787961671 -0.01576461022880866 0.0
vn 0.01009033040916192 -0.016834699238720875 0.0
vn 0.00839165363258636 -0.017742660892181582 0.0
vn 0.006612160644184417 -0.018479751022125502 0.0
vn 0.004768988934204322 -0.01903887104766676 0.0
vn 0.0028798892537932777 -0.019414636337313558 0.0
vn 0.0009630546655606365 -0.019603428065912143 0.0
vn -0.0009630546655606143 -0.019603428065912143 0.0
vn -0.0028798892537933 -0.019414636337313555 0.0
vn -0.004768988934204299 -0.01903887104766675 0.0
vn -0.006612160644184417 -0.018479751022125512 0.0
vn -0.00839165363258636 -0.017742660892181596 0.0
vn -0.01009033040916192 -0.016834699238720864 0.0
vn -0.011691831787961671 -0.01576461022880866 0.0
vn -0.013180734435237885 -0.01454269940458044 0.0
vn -0.014542699404580351 -0.01318073443523784 0.0
vn -0.01576461022880875 -0.011691831787961716 0.0
vn -0.016834699238720864 -0.010090330409161942 0.0
vn -0.017742660892181506 -0.008391653632586316 0.0
vn -0.01847975102212558 -0.006612160644184462 0.0
vn -0.01903887104766676 -0.004768988934204299 0.0
vn -0.019414636337313645 -0.002879889253793322 0.0
vn -0.019603428065912056 -0.0009630546655606143 0.0
vn -0.019603428065912056 0.0009630546655606143 0.0
vn -0.019414636337313645 0.0028798892537933 0.0
vn -0.01903887104766675 0.004768988934204299 0.0
vn -0.018479751022125592 0.006612160644184462 0.0
vn -0.017742660892181517 0.008391653632586316 0.0
vn -0.016834699238720854 0.01009033040916192 0.0
vn -0.01576461022880875 0.011691831787961716 0.0
vn -0.014542699404580351 0.01318073443523784 0.0
vn -0.01318073443523784 0.014542699404580351 0.0
vn -0.011691831787961737 0.01576461022880875 0.0
vn -0.01009033040916192 0.016834699238720854 0.0
vn -0.008391653632586338 0.017742660892181506 0.0
vn -0.006612160644184462 0.01847975102212558 0.0
vn -0.004768988934204299 0.01903887104766676 0.0
vn -0.002879889253793322 0.019414636337313645 0.0
vn -0.0009630546655606143 0.0196034280659121 0.0

f 3//2 5//2 1//2
f 2//1 6//1 4//1
f 5//2 7//2 1//2
f 2//1 8//1 6//1
f 7//2 9//2 1//2
f 2//1 10//1 8//1
f 9//2 11//2 1//2
f 2//1 12//1 10//1
f 11//2 13//2 1//2
f 2//1 14//1 12//1
f 13//2 15//2 1//2
f 2//1 16//1 14//1
f 15//2 17//2 1//2
f 2//1 18//1 16//1
f 17//2 19//2 1//2
f 2//1 20//1 18//1
f 19//2 21//2 1//2
f 2//1 22//1 20//1
f 21//2 23//2 1//2
f 2//1 24//1 22//1
f 23//2 25//2 1//2
f 2//1 26//1 24//1
f 25//2 27//2 1//2
f 2//1 28//1 26//1
f 27//2 29//2 1//2
f 2//1 30//1 28//1
f 29//2 31//2 1//2
f 2//1 32//1 30//1
f 31//2 33//2 1//2
f 2//1 34//1 32//1
f 33//2 35//2 1//2
f 2//1 36//1 34//1
f 35//2 37//2 1//2
f 2//1 38//1 36//1
f 37//2 39//2 1//2
f 2//1 40//1 38//1
f 39//2 41//2 1//2
f 2//1 42//1 40//1
f 41//2 43//2 1//2
f 2//1 44//1 42//1
f 43//2 45//2 1//2
f 2//1 46//1 44//1
f 45//2 47//2 1//2
f 2//1 48//1 46//1
f 47//2 49//2 1//2
f 2//1 50//1 48//1
f 49//2 51//2 1//2
f 2//1 52//1 50//1
f 51//2 53//2 1//2
f 2//1 54//1 52//1
f 53//2 55//2 1//2
f 2//1 56//1 54//1
f 55//2 57//2 1//2
f 2//1 58//1 56//1
f 57//2 59//2 1//2
f 2//1 60//1 58//1
f 59//2 61//2 1//2
f 2//1 62//1 60//1
f 61//2 63//2 1//2
f 2//1 64//1 62//1
f 63//2 65//2 1//2
f 2//1 66//1 64//1
f 65//2 67//2 1//2
f 2//1 68//1 66//1
f 67//2 69//2 1//2
f 2//1 70//1 68//1
f 69//2 71//2 1//2
f 2//1 72//1 70//1
f 71//2 73//2 1//2
f 2//1 74//1 72//1
f 73//2 75//2 1//2
f 2//1 76//1 74//1
f 75//2 77//2 1//2
f 2//1 78//1 76//1
f 77//2 79//2 1//2
f 2//1 80//1 78//1
f 79//2 81//2 1//2
f 2//1 82//1 80//1
f 81//2 83//2 1//2
f 2//1 84//1 82//1
f 83//2 85//2 1//2
f 2//1 86//1 84//1
f 85//2 87//2 1//2
f 2//1 88//1 86//1
f 87//2 89//2 1//2
f 2//1 90//1 88//1
f 89//2 91//2 1//2
f 2//1 92//1 90//1
f 91//2 93//2 1//2
f 2//1 94//1 92//1
f 93//2 95//2 1//2
f 2//1 96//1 94//1
f 95//2 97//2 1//2
f 2//1 98//1 96//1
f 97//2 99//2 1//2
f 2//1 100//1 98//1
f 99//2 101//2 1//2
f 2//1 102//1 100//1
f 101//2 103//2 1//2
f 2//1 104//1 102//1
f 103//2 105//2 1//2
f 2//1 106//1 104//1
f 105//2 107//2 1//2
f 2//1 108//1 106//1
f 107//2 109//2 1//2
f 2//1 110//1 108//1
f 109//2 111//2 1//2
f 2//1 112//1 110//1
f 111//2 113//2 1//2
f 2//1 114//1 112//1
f 113//2 115//2 1//2
f 2//1 116//1 114//1
f 115//2 117//2 1//2
f 2//1 118//1 116//1
f 117//2 119//2 1//2
f 2//1 120//1 118//1
f 119//2 121//2 1//2
f 2//1 122//1 120//1
f 121//2 123//2 1//2
f 2//1 124//1 122//1
f 123//2 125//2 1//2
f 2//1 126//1 124//1
f 125//2 127//2 1//2
f 2//1 128//1 126//1
f 127//2 129//2 1//2
f 2//1 130//1 128//1
f 129//2 3//2 1//2
f 2//1 4//1 130//1
f 3//3 4//3 5//3
f 6//3 5//3 4//3
f 5//4 6//4 7//4
f 8//4 7//4 6//4
f 7//5 8//5 9//5
f 10//5 9//5 8//5
f 9//6 10//6 11//6
f 12//6 11//6 10//6
f 11//7 12//7 13//7
f 14//7 13//7 12//7
f 13//8 14//8 15//8
f 16//8 15//8 14//8
f 15//9 16//9 17//9
f 18//9 17//9 16//9
f 17//10 18//10 19//10
f 20//10 19//10 18//10
f 19//11 20//11 21//11
f 22//11 21//11 20//11
f 21//12 22//12 23//12
f 24//12 23//12 22//12
f 23//13 24//13 25//13
f 26//13 25//13 24//13
f 25//14 26//14 27//14
f 28//14 27//14 26//14
f 27//15 28//15 29//15
f 30//15 29//15 28//15
f 29//16 30//16 31//16
f 32//16 31//16 30//16
f 31//17 32//17 33//17
f 34//17 33//17 32//17
f 33//18 34//18 35//18
f 36//18 35//18 34//18
f 35//19 36//19 37//19
f 38//19 37//19 36//19
f 37//20 38//20 39//20
f 40//20 39//20 38//20
f 39//21 40//21 41//21
f 42//21 41//21 40//21
f 41//22 42//22 43//22
f 44//22 43//22 42//22
f 43//23 44//23 45//23
f 46//23 45//23 44//23
f 45//24 46//24 47//24
f 48//24 47//24 46//24
f 47//25 48//25 49//25
f 50//25 49//25 48//25
f 49//26 50//26 51//26
f 52//26 51//26 50//26
f 51//27 52//27 53//27
f 54//27 53//27 52//27
f 53//28 54//28 55//28
f 56//28 55//28 54//28
f 55//29 56//29 57//29
f 58//29 57//29 56//29
f 57//30 58//30 59//30
f 60//30 59//30 58//30
f 59//31 60//31 61//31
f 62//31 61//31 60//31
f 61//32 62//32 63//32
f 64//32 63//32 62//32
f 63//33 64//33 65//33
f 66//33 65//33 64//33
f 65//34 66//34 67//34
f 68//34 67//34 66//34
f 67//35 68//35 69//35
f 70//35 69//35 68//35
f 69//36 70//36 71//36
f 72//36 71//36 70//36
f 71//37 72//37 73//37
f 74//37 73//37 72//37
f 73//38 74//38 75//38
f 76//38 75//38 74//38
f 75//39 76//39 77//39
f 78//39 77//39 76//39
f 77//40 78//40 79//40
f 80//40 79//40 78//40
f 79//41 80//41 81//41
f 82//41 81//41 80//41
f 81//42 82//42 83//42
f 84//42 83//42 82//42
f 83//43 84//43 85//43
f 86//43 85//43 84//43
f 85//44 86//44 87//44
f 88//44 87//44 86//44
f 87//45 88//45 89//45
f 90//45 89//45 88//45
f 89//46 90//46 91//46
f 92//46 91//46 90//46
f 91//47 92//47 93//47
f 94//47 93//47 92//47
f 93//48 94//48 95//48
f 96//48 95//48 94//48
f 95//49 96//49 97//49
f 98//49 97//49 96//49
f 97//50 98//50 99//50
f 100//50 99//50 98//50
f 99//51 100//51 101//51
f 102//51 101//51 100//51
f 101//52 102//52 103//52
f 104//52 103//52 102//52
f 103//53 104//53 105//53
f 106//53 105//53 104//53
f 105//54 106//54 107//54
f 108//54 107//54 106//54
f 107//55 108//55 109//55
f 110//55 109//55 108//55
f 109//56 110//56 111//56
f 112//56 111//56 110//56
f 111//57 112//57 113//57
f 114//57 113//57 112//57
f 113//58 114//58 115//58
f 116//58 115//58 114//58
f 115//59 116//59 117//59
f 118//59 117//59 116//59
f 117//60 118//60 119//60
f 120//60 119//60 118//60
f 119//61 120//61 121//61
f 122//61 121//61 120//61
f 121//62 122//62 123//62
f 124//62 123//62 122//62
f 123//63 124//63 125//63
f 126//63 125//63 124//63
f 125//64 126//64 127//64
f 128//64 127//64 126//64
f 127//65 128//65 129//65
f 130//65 129//65 128//65
f 129//66 130//66 3//66
f 4//66 3//66 130//66
