# Blender v3.6.5 OBJ File: ''
# www.blender.org
mtllib Car.mtl
o Car_Cube
v -6.640025 2.428115 -0.023260
v -6.640025 2.381240 -1.536438
v -6.640025 2.224990 -3.049616
v -6.598531 2.146865 -3.148259
v -6.632987 2.150741 -0.023260
v -1.561900 3.865615 2.095881
v -1.171275 2.224991 3.004084
v -1.046178 2.305069 2.958672
v -1.397741 3.781631 2.141290
v -5.038463 2.381240 1.490412
v -4.804088 2.224991 3.004084
v -4.776841 2.269210 2.852715
v -5.011216 2.417647 1.414728
v -3.714244 3.787490 -2.142400
v -4.804088 2.224990 -3.050603
v -4.776841 2.269209 -2.899238
v -3.741490 3.753584 -2.036444
v -1.561900 3.865615 -2.142401
v -1.171275 2.224990 -3.050603
v -1.335434 2.305069 -3.005194
v -1.686997 3.781631 -2.187813
v 6.328725 1.990616 3.101740
v 6.641225 1.170303 3.101740
v 6.484975 2.068741 3.007172
v 2.461538 2.224991 3.004084
v -1.171275 2.146866 3.101740
v 0.590444 3.787490 -2.142400
v 2.461538 2.224990 -3.050603
v 2.223353 2.305069 -3.005194
v 0.539369 3.711319 -2.187813
v -1.686997 3.781631 2.141290
v -1.335434 2.305069 2.958672
v -5.116588 2.428115 -0.023260
v -5.089341 2.462178 -0.023260
v -2.997447 2.146865 -3.148259
v -1.171275 2.146865 -3.148259
v -1.171275 1.170303 -3.148259
v -3.193738 1.482803 -3.148259
v 4.453725 2.029678 -3.148259
v 6.328725 1.990615 -3.148259
v 6.641225 1.170303 -3.148259
v 4.662466 1.482803 -3.148259
v 3.047475 2.058975 3.101740
v -1.171275 2.146866 3.101740
v -1.171275 1.170303 3.101740
v 3.380725 1.482803 3.101740
v -4.960338 2.146866 3.101740
v -6.598531 2.146866 3.101740
v -6.796275 1.170303 3.101740
v -4.764050 1.482803 3.101740
v 6.571325 1.224457 2.979231
v 6.438512 1.988129 2.898847
v 6.484975 2.068740 -3.054210
v 6.953725 1.170297 1.539240
v 6.836950 1.224453 1.651106
v -6.796275 1.170303 2.789240
v -6.796275 1.007544 3.101740
v -1.171275 1.007544 -3.148259
v -1.171275 0.512750 -3.148259
v -2.684947 0.512750 -3.148259
v 3.380725 1.482803 -3.148259
v 2.739856 0.512750 -3.148259
v 6.641225 2.224991 1.491956
v 6.571325 2.011566 1.610915
v 6.641225 2.224991 -1.538735
v 6.571325 2.011565 -1.657688
v 6.438512 1.988128 -2.945838
v 6.953725 1.170297 -1.585760
v 6.571325 1.224456 -3.025784
v 6.836950 1.224453 -1.697659
v -4.960338 2.146865 -3.148259
v 3.047475 2.058975 -3.148259
v -6.640025 2.224991 3.000603
v 0.590444 3.787490 2.095881
v 0.539369 3.711319 2.141290
v 2.223353 2.305069 2.958672
v -3.714244 3.787490 2.095881
v -4.604965 2.305069 2.958672
v -3.624106 3.711319 2.141290
v -3.174547 2.305069 2.958672
v -3.787584 2.305069 2.958672
v -1.397741 3.781631 -2.187813
v -1.046178 2.305069 -3.005194
v -3.624106 3.711319 -2.187813
v -4.604965 2.305069 -3.005194
v -6.796275 1.007544 -3.148259
v -6.796275 1.170303 -2.835760
v -6.796275 1.170303 -3.148259
v -1.171275 1.007544 3.101740
v -1.171275 0.512750 3.101741
v 2.739856 0.512750 3.101741
v 4.453725 2.029678 3.101740
v 4.662466 1.482803 3.101740
v -2.997447 2.146866 3.101740
v -3.193738 1.482803 3.101740
v -4.764050 1.482803 -3.148259
v -3.139828 3.728897 2.141290
v -2.776622 3.742081 2.141290
v -5.038463 2.381240 -1.536932
v -5.011216 2.417647 -1.461250
v -3.741490 3.753584 1.989922
v -6.640025 2.381240 1.488672
v -6.796275 1.170303 -0.023260
v -2.684947 0.512750 3.101741
v -5.272837 0.512750 -3.148259
v -6.796275 0.512750 -3.148259
v -6.796275 0.512750 3.101741
v -5.272837 0.512750 3.101741
v 2.617788 2.381240 -1.536932
v -1.561900 4.021865 -1.082832
v -3.948619 3.943740 -1.082832
v -4.026744 3.990615 -0.023260
v -1.561900 4.068741 -0.023260
v 0.746694 3.990615 -0.023260
v 0.746694 3.943740 1.036309
v 0.793472 3.901553 0.983331
v 0.793472 3.948428 -0.023260
v 0.637222 3.753116 1.989922
v 2.617788 2.381240 1.490412
v 6.688100 2.224991 -0.023260
v 2.617788 2.428115 -0.023260
v -1.561900 4.021865 1.036309
v 0.746694 3.943740 -1.082832
v 0.793472 3.901553 -1.029853
v 0.637222 3.753116 -2.036444
v 2.414759 2.268740 -2.899238
v -3.975866 3.902022 -1.029853
v -4.053990 3.946553 -0.023260
v 2.414759 2.268741 2.852715
v 2.571009 2.417178 -1.461250
v 2.571009 2.464053 -0.023260
v 2.571009 2.417178 1.414728
v -3.948619 3.943740 1.036309
v -3.975866 3.902022 0.983331
v 6.688100 2.224991 -0.023260
v 7.000600 1.170294 -0.023260
v 6.953725 1.170297 -1.585760
v 6.641225 2.224991 -1.538735
v 6.641225 2.224991 1.491956
v 6.953725 1.170297 1.539240
v -1.335434 2.305069 2.958672
v -3.174547 2.305069 2.958672
v 2.201916 2.312275 2.954587
v -1.034919 2.312275 2.954587
v -1.007053 2.330112 -2.990991
v 2.148863 2.330112 -2.990991
v -3.787584 2.305069 2.958672
v -4.604965 2.305069 2.958672
v -1.350209 2.312275 2.954587
v -4.587044 2.312275 2.954587
v -4.542690 2.330112 -2.990991
v -1.386778 2.330112 -2.990991
v -3.767372 3.721372 1.889262
v -4.750959 2.311216 2.708919
v -4.750959 2.311215 -2.755438
v -3.767372 3.721372 -1.935785
v -4.985334 2.452231 1.342828
v -4.985334 2.452231 -1.389350
v -5.063457 2.494537 -0.023260
v 0.834784 3.861944 0.933003
v 0.834784 3.906475 -0.023260
v 2.523447 2.451788 -1.389350
v 2.523447 2.496319 -0.023260
v 2.375009 2.310772 -2.755438
v 2.523447 2.451788 1.342828
v 2.375009 2.310772 2.708919
v -4.079875 3.904694 -0.023260
v -4.001750 3.862388 0.933003
v -4.001750 3.862388 -0.979522
v 0.686347 3.720928 1.889262
v 0.834784 3.861944 -0.979522
v 0.686347 3.720928 -1.935785
v -1.382966 3.774072 2.145378
v -3.624106 3.711319 2.141290
v -1.686997 3.781631 2.141290
v -3.139828 3.728897 2.141290
v -1.698256 3.774072 2.145378
v -3.615994 3.704463 2.145378
v 0.534772 3.704463 2.145378
v -1.346400 3.755365 -2.202013
v -3.595916 3.687497 -2.202013
v -1.726122 3.755365 -2.202013
v 0.523397 3.687497 -2.202013
v -2.776622 3.742081 2.141290
v -2.776984 3.734916 2.145378
v 2.739856 0.434625 3.257991
v 3.380725 1.404678 3.257990
v 4.662466 1.404678 3.257990
v -2.684947 0.434625 -3.304509
v -3.193738 1.404678 -3.304510
v -4.764050 1.404678 -3.304510
v -5.272837 0.434625 -3.304509
v 3.380725 1.404678 -3.304510
v 2.739856 0.434625 -3.304509
v 4.662466 1.404678 -3.304510
v 2.932119 0.507382 3.257991
v 3.476856 1.331925 3.257990
v 4.566335 1.331925 3.257990
v 2.739856 0.037491 3.023616
v 3.476856 1.331925 -3.304510
v 2.932119 0.507381 -3.304509
v 4.566335 1.331925 -3.304510
v 2.739856 0.037490 -3.070134
v -4.646275 1.356156 -3.304510
v -5.078747 0.483147 -3.304509
v -2.879038 0.483147 -3.304509
v -3.311509 1.356156 -3.304510
v -5.272837 0.037490 -3.070134
v -2.684947 0.037490 -3.070134
v -2.684947 0.434625 3.257991
v -2.879038 0.507382 3.257991
v -2.684947 0.037491 3.023616
v -6.796275 0.037491 3.023616
v -5.272837 0.037491 3.023616
v 5.303334 0.512750 -3.148259
v 6.641225 0.356500 -3.148259
v 6.641225 0.037490 -3.070134
v 5.303334 0.037490 -3.070134
v -1.171275 0.037490 -3.070134
v -1.171275 0.037491 3.023616
v 7.000600 1.170294 -0.023260
v 7.422475 1.121466 -0.023260
v 7.375600 1.121469 -1.429563
v -7.108775 0.214890 -2.976384
v -6.796275 0.037490 -3.070134
v -7.108775 0.214891 2.929866
v -7.108775 0.214891 -0.023259
v -6.796275 0.037491 -0.023259
v -6.796275 0.037491 2.718928
v 7.063100 1.121475 -2.835863
v 6.953725 0.037491 -0.023259
v 6.953725 0.037491 -1.546697
v 7.375600 0.242569 -1.429563
v 7.422475 0.242569 -0.023259
v -6.796275 0.037490 -2.765447
v 6.641225 0.037491 3.023616
v 6.953725 0.037491 1.500178
v 7.375600 0.242569 1.383041
v 7.063100 0.242569 2.789344
v 7.109975 0.389053 -2.835863
v 7.422475 0.389050 -1.429563
v 7.063100 0.242569 -2.835863
v 7.469350 0.389047 -0.023259
v 7.422475 0.389050 1.383041
v 7.109975 0.389053 2.789344
v 6.641225 1.007544 -3.148259
v 7.109975 0.974990 -2.835863
v 7.063100 1.121475 2.789343
v 7.375600 1.121469 1.383041
v 6.641225 0.356500 3.101741
v 6.641225 1.007544 3.101740
v 7.109975 0.974991 2.789343
v 7.422475 0.974985 1.383041
v 7.469350 0.974978 -0.023260
v 7.422475 0.974984 -1.429563
v -7.108775 1.070694 2.929865
v -7.108775 1.070694 -2.976385
v -7.108775 1.070694 -0.023260
v 5.303334 0.512750 3.101741
v 5.303334 0.037491 3.023616
v -3.193738 1.404678 3.257990
v -4.764050 1.404678 3.257990
v 5.303334 0.434625 -3.304509
v 5.303334 0.434625 3.257991
v -5.272837 0.434625 3.257991
v 5.111075 0.507382 3.257991
v 5.111072 0.507381 -3.304509
v -5.078747 0.507382 3.257991
v -4.646275 1.331925 3.257990
v -3.311509 1.331925 3.257990
v -5.272837 0.037490 -2.460759
v -5.272837 0.037491 2.414241
v -5.272837 0.037491 -0.023259
v 3.047475 0.037491 1.500178
v -1.171275 0.037491 1.500178
v -1.171275 0.037491 -0.023259
v 3.047475 0.037491 -0.023259
v 3.047475 0.037491 -1.546697
v -1.171275 0.037491 -1.546697
v 4.922475 0.037491 1.500178
v 4.922475 0.037491 -0.023259
v 4.922475 0.037491 -1.546697
v -2.684947 0.037491 2.185725
v -2.684947 0.037491 -0.023259
v -2.684947 0.037490 -2.232244
vn -0.9931 -0.1174 -0.0009
vn 0.0066 0.4855 0.8742
vn -0.5262 0.8333 0.1696
vn -0.8136 0.5810 -0.0233
vn -0.0065 0.4831 -0.8755
vn 0.4466 0.1701 0.8784
vn 0.0129 0.6371 0.7707
vn 0.0069 0.5087 -0.8609
vn -0.0065 0.4831 0.8755
vn -0.7573 0.6503 0.0602
vn 0.0000 0.0000 -1.0000
vn -0.0000 0.0000 1.0000
vn 0.8831 0.1054 -0.4572
vn 0.4447 0.1694 -0.8795
vn 0.4952 0.8631 0.0990
vn -1.0000 0.0000 0.0000
vn 0.6657 0.2425 0.7057
vn 0.9283 -0.3648 -0.0723
vn 0.4952 0.8631 -0.0990
vn 0.9283 -0.3647 0.0723
vn 0.8830 0.1057 0.4572
vn 0.6659 0.2423 -0.7056
vn 0.0000 0.7809 -0.6247
vn -0.0003 0.7839 -0.6209
vn 0.0129 0.6366 -0.7711
vn -0.0002 0.7826 0.6225
vn 0.0183 0.5029 0.8641
vn 0.0069 0.5086 0.8609
vn 0.0000 0.4933 0.8699
vn -0.0068 0.5061 0.8625
vn 0.0183 0.5029 -0.8641
vn 0.0065 0.4855 -0.8742
vn 0.0000 0.4933 -0.8699
vn -0.0068 0.5061 -0.8625
vn -0.0180 0.4962 -0.8680
vn -0.0180 0.4962 0.8680
vn -0.5263 0.8332 -0.1696
vn -0.8136 0.5810 0.0233
vn -0.7573 0.6503 -0.0602
vn -0.9931 -0.1174 0.0009
vn -0.9834 0.1814 0.0055
vn -0.9834 0.1814 -0.0055
vn 0.4483 0.8641 -0.2288
vn 0.6938 0.6057 -0.3896
vn 0.1351 0.8188 -0.5579
vn 0.2539 0.9630 -0.0903
vn 0.0006 0.9953 -0.0969
vn -0.6103 0.7699 -0.1863
vn -0.5260 0.8505 0.0000
vn 0.0008 1.0000 0.0000
vn 0.3776 0.9260 0.0000
vn 0.4545 0.8799 0.1386
vn 0.7505 0.6496 0.1213
vn 0.6961 0.7179 0.0000
vn 0.2718 0.8342 0.4799
vn 0.7258 0.6766 0.1246
vn -0.2927 0.9493 -0.1147
vn -0.7388 0.6719 -0.0515
vn -0.7402 0.6724 0.0000
vn -0.4093 0.9124 -0.0000
vn -0.7389 0.6719 0.0515
vn -0.2927 0.9493 0.1147
vn 0.2539 0.9630 0.0903
vn 0.4483 0.8641 0.2288
vn 0.0444 0.9990 0.0000
vn 0.3368 0.9416 0.0000
vn 0.0006 0.9953 0.0969
vn -0.0005 0.8261 0.5635
vn 0.4545 0.8799 -0.1386
vn 0.2718 0.8342 -0.4799
vn -0.0005 0.8261 -0.5635
vn -0.1397 0.8498 -0.5082
vn -0.7133 0.6466 -0.2703
vn 0.7505 0.6496 -0.1213
vn 0.1351 0.8190 0.5576
vn 0.6940 0.6058 0.3890
vn -0.7147 0.6449 0.2707
vn -0.1399 0.8505 0.5070
vn 0.7258 0.6766 -0.1246
vn 0.5346 0.8406 -0.0869
vn -0.9263 0.3354 -0.1718
vn -0.8681 0.4963 0.0000
vn 0.5346 0.8406 0.0869
vn 0.5150 0.8532 -0.0823
vn 0.5787 0.8155 0.0000
vn 0.5150 0.8532 0.0823
vn -0.6103 0.7699 0.1863
vn -0.3787 0.7982 0.4685
vn -0.3787 0.7982 -0.4685
vn -0.9107 0.3895 -0.1376
vn -0.9263 0.3354 0.1718
vn -0.9107 0.3895 0.1376
vn 0.9586 0.2847 0.0000
vn 0.9582 0.2846 -0.0292
vn 0.9582 0.2846 0.0292
vn 0.1464 -0.3535 -0.9239
vn 0.3535 -0.1464 -0.9239
vn 0.0000 0.4932 0.8699
vn 0.0000 0.4933 -0.8698
vn -0.3535 0.1464 -0.9239
vn -0.5181 0.8376 0.1731
vn -0.5181 0.8376 -0.1731
vn -0.7560 0.6516 -0.0623
vn -0.7560 0.6516 0.0623
vn 0.6815 0.7266 0.0872
vn 0.6773 0.7357 0.0000
vn 0.5752 0.8140 -0.0806
vn 0.6013 0.7990 0.0000
vn 0.5399 0.8338 -0.1154
vn 0.5752 0.8140 0.0806
vn 0.5399 0.8338 0.1154
vn -0.8427 0.5384 0.0000
vn -0.8486 0.5109 0.1377
vn -0.8486 0.5109 -0.1377
vn -0.8843 0.4245 -0.1943
vn -0.8843 0.4245 0.1943
vn 0.6958 0.7011 0.1561
vn 0.6815 0.7266 -0.0872
vn 0.6958 0.7011 -0.1561
vn 0.0065 0.4855 0.8742
vn -0.0064 0.5061 0.8625
vn 0.0183 0.5030 0.8641
vn 0.0070 0.5087 0.8609
vn 0.0066 0.4855 -0.8742
vn -0.0066 0.4831 -0.8755
vn 0.0183 0.5029 -0.8642
vn 0.0068 0.5086 -0.8610
vn -0.0180 0.4961 -0.8681
vn 0.0040 0.4918 0.8707
vn 0.0038 0.5004 0.8658
vn 0.0105 0.5022 0.8647
vn 0.0115 0.4953 0.8686
vn 0.0038 0.5004 -0.8658
vn 0.0040 0.4918 -0.8707
vn 0.0115 0.4953 -0.8686
vn 0.0105 0.5022 -0.8647
vn -0.0038 0.4986 0.8668
vn -0.0038 0.4898 0.8718
vn -0.0112 0.4915 0.8708
vn -0.0123 0.4953 0.8686
vn -0.0109 0.4984 0.8669
vn -0.0038 0.4898 -0.8718
vn -0.0038 0.4986 -0.8668
vn -0.0109 0.4984 -0.8669
vn -0.0112 0.4915 -0.8708
vn -0.7499 0.6500 -0.1231
vn -0.7869 0.6171 -0.0000
vn -0.7499 0.6500 0.1231
vn -0.6856 0.7164 0.1294
vn -0.6856 0.7164 -0.1294
vn -0.8044 0.5314 0.2657
vn 0.0000 0.8944 0.4472
vn 0.8626 0.4524 -0.2262
vn -0.8626 0.4524 -0.2262
vn 0.0000 0.8944 -0.4472
vn -0.8044 0.5314 -0.2657
vn 0.1889 -0.4991 0.8457
vn 0.1889 -0.4991 -0.8457
vn 0.1260 -0.5042 -0.8543
vn -0.1260 -0.5042 -0.8543
vn -0.1872 -0.4993 0.8460
vn -0.5873 0.1263 0.7994
vn -0.2298 -0.0625 0.9712
vn -0.2514 -0.7471 0.6153
vn -0.0749 -0.8852 0.4592
vn 0.5503 0.1475 -0.8218
vn 0.2808 -0.1046 -0.9541
vn 0.2635 -0.7330 -0.6271
vn 0.0699 -0.8891 -0.4524
vn 0.5873 0.1263 -0.7994
vn -0.0000 -0.0814 -0.9967
vn 0.0000 -0.7623 -0.6472
vn 0.0798 -0.8840 -0.4606
vn -0.5517 0.1520 0.8201
vn 0.0000 -0.0814 0.9967
vn -0.0000 -0.7623 0.6472
vn -0.0750 -0.8854 0.4588
vn 0.3284 0.9232 -0.1995
vn 0.1156 0.9933 0.0000
vn 0.6421 0.7666 -0.0000
vn 0.6514 0.7543 -0.0818
vn -0.7904 -0.4201 -0.4459
vn -0.2298 -0.0625 -0.9712
vn -0.2514 -0.7471 -0.6153
vn -0.7904 -0.4201 0.4459
vn -0.8642 -0.5032 0.0000
vn -0.2553 -0.9669 -0.0000
vn 0.4920 0.3543 -0.7952
vn 0.6187 0.6620 -0.4231
vn 0.2145 -0.9767 0.0000
vn 0.2449 -0.9689 -0.0342
vn 0.7618 -0.6414 -0.0907
vn 0.7528 -0.6582 0.0000
vn 0.2635 -0.7330 0.6271
vn 0.2449 -0.9689 0.0342
vn 0.7618 -0.6414 0.0907
vn 0.7065 -0.5446 0.4521
vn 0.8287 -0.1299 -0.5444
vn 0.9807 -0.1518 -0.1232
vn 0.7065 -0.5446 -0.4521
vn 0.9881 -0.1537 0.0000
vn 0.9807 -0.1518 0.1232
vn 0.8287 -0.1299 0.5444
vn 0.2968 0.0238 -0.9546
vn 0.8330 0.1063 -0.5430
vn 0.3284 0.9232 0.1995
vn 0.4920 0.3542 0.7952
vn 0.6187 0.6620 0.4231
vn 0.6514 0.7543 0.0818
vn 0.2808 -0.1046 0.9541
vn 0.2968 0.0238 0.9546
vn 0.8330 0.1063 0.5430
vn 0.9807 0.1518 0.1232
vn 0.9881 0.1537 -0.0000
vn 0.9807 0.1518 -0.1232
vn -0.3584 0.1649 0.9189
vn -0.7124 0.5373 0.4515
vn -0.7503 0.6611 0.0000
vn -0.7774 0.6220 -0.0935
vn -0.7124 0.5373 -0.4515
vn -0.8074 0.5900 -0.0000
vn -0.7774 0.6220 0.0935
vn -0.3584 0.1649 -0.9189
vn 0.5503 0.1475 0.8218
vn 0.0699 -0.8891 0.4524
vn -0.5517 0.1520 -0.8201
vn -0.0750 -0.8854 -0.4588
vn 0.1702 0.3625 0.9163
vn -0.5873 0.1263 -0.7994
vn -0.0798 -0.8840 -0.4606
vn 0.5873 0.1263 0.7994
vn 0.0750 -0.8852 0.4592
vn 0.1702 0.3625 -0.9163
vn 0.1782 0.3429 0.9223
vn 0.3971 0.5352 0.7456
vn 0.6359 -0.1214 0.7621
vn -0.1782 0.3429 0.9223
vn -0.3971 0.5352 0.7456
vn 0.6361 -0.0929 -0.7660
vn 0.3528 0.5485 -0.7580
vn 0.3528 0.5485 0.7580
vn 0.6361 -0.0929 0.7660
vn -0.6359 -0.1214 0.7621
vn -0.0515 -0.1360 0.9894
vn -0.6361 -0.0929 0.7660
vn -0.0515 -0.1360 -0.9894
vn -0.6361 -0.0929 -0.7660
vn -0.6517 -0.1062 -0.7510
vn 0.6517 -0.1062 -0.7510
vn 0.0526 -0.1403 0.9887
vn -0.0526 -0.1403 0.9887
vn 0.9551 0.2568 -0.1478
vn 0.9551 0.2569 0.1478
vn 0.0000 -1.0000 0.0000
usemtl Body
s off
f 1//1 2//1 3//1 4//1 5//1
f 6//2 7//2 8//2 9//2
f 10//3 11//3 12//3 13//3
f 14//4 15//4 16//4 17//4
f 18//5 19//5 20//5 21//5
f 22//6 23//6 24//6
f 22//7 24//7 25//7 7//7 26//7
f 27//8 28//8 29//8 30//8
f 7//9 6//9 31//9 32//9
f 33//10 10//10 13//10 34//10
f 35//11 36//11 37//11 38//11
f 39//11 40//11 41//11 42//11
f 43//12 44//12 45//12 46//12
f 47//12 48//12 49//12 50//12
f 24//13 23//13 51//13 52//13
f 53//14 41//14 40//14
f 23//15 54//15 55//15 51//15
f 49//16 56//16 57//16
f 58//11 59//11 60//11 38//11 37//11
f 61//11 62//11 59//11 58//11 37//11
f 54//17 63//17 64//17 55//17
f 53//18 65//18 66//18 67//18
f 68//19 41//19 69//19 70//19
f 63//20 24//20 52//20 64//20
f 41//21 53//21 67//21 69//21
f 65//22 68//22 70//22 66//22
f 35//23 71//23 4//23 15//23 19//23 36//23
f 15//24 4//24 3//24
f 36//25 19//25 28//25 53//25 40//25 39//25 72//25
f 26//26 7//26 11//26 73//26 48//26
f 74//27 6//27 9//27 75//27
f 25//28 74//28 75//28 76//28
f 7//29 25//29 76//29 8//29
f 77//30 11//30 78//30 79//30
f 11//29 7//29 32//29 80//29 81//29 78//29
f 18//31 27//31 30//31 82//31
f 19//32 18//32 82//32 83//32
f 28//33 19//33 83//33 29//33
f 15//34 14//34 84//34 85//34
f 14//35 18//35 21//35 84//35
f 86//16 87//16 88//16
f 89//12 90//12 91//12 46//12 45//12
f 22//12 92//12 93//12 23//12
f 72//11 39//11 42//11 61//11
f 36//11 72//11 61//11 37//11
f 92//12 43//12 46//12 93//12
f 94//12 47//12 50//12 95//12
f 4//11 71//11 96//11 88//11
f 77//36 79//36 97//36 98//36 31//36 6//36
f 44//12 94//12 95//12 45//12
f 19//33 15//33 85//33 20//33
f 71//11 35//11 38//11 96//11
f 15//37 99//37 100//37 16//37
f 11//38 77//38 101//38 12//38
f 99//39 33//39 34//39 100//39
f 5//40 48//40 73//40 102//40 1//40
f 49//41 48//41 5//41 103//41 56//41
f 4//42 88//42 87//42 103//42 5//42
f 95//12 104//12 90//12 89//12 45//12
f 96//11 105//11 106//11 86//11 88//11
f 50//12 49//12 57//12 107//12 108//12
s 1
f 65//43 53//44 28//45 109//46
f 110//47 111//48 112//49 113//50
f 114//51 115//52 116//53 117//54
f 115//52 74//55 118//56 116//53
f 99//57 2//58 1//59 33//60
f 102//61 10//62 33//60 1//59
f 119//63 63//64 120//65 121//66
f 115//52 122//67 6//68 74//55
f 123//69 110//47 113//50 114//51
f 27//70 18//71 110//47 123//69
f 15//72 3//73 2//58 99//57
f 123//69 114//51 117//54 124//74
f 120//65 65//43 109//46 121//66
f 114//51 113//50 122//67 115//52
f 25//75 24//76 63//64 119//63
f 73//77 11//78 10//62 102//61
f 28//45 27//70 125//79 126//80
f 112//49 111//48 127//81 128//82
f 74//55 25//75 129//83 118//56
f 121//66 109//46 130//84 131//85
f 119//63 121//66 131//85 132//86
f 109//46 28//45 126//80 130//84
f 25//75 119//63 132//86 129//83
f 27//70 123//69 124//74 125//79
f 122//67 133//87 77//88 6//68
f 18//71 14//89 111//48 110//47
f 113//50 112//49 133//87 122//67
f 111//48 14//89 17//90 127//81
f 77//88 133//87 134//91 101//92
f 133//87 112//49 128//82 134//91
f 135//93 136//93 137//94 138//94
f 139//95 140//95 136//93 135//93
usemtl Black
s off
f 80//96 32//11 141//97 142//11
f 8//98 76//98 143//98 144//98
f 29//99 83//99 145//99 146//99
f 78//12 81//12 147//12 148//11
f 148//98 147//98 142//98 141//98 149//98 150//98
f 81//100 80//12 142//97 147//11
f 20//99 85//99 151//99 152//99
f 12//38 101//38 153//38 154//38
f 17//4 16//4 155//4 156//4
f 13//101 12//101 154//101 157//101
f 16//102 100//102 158//102 155//102
f 100//103 34//103 159//103 158//103
f 34//104 13//104 157//104 159//104
s 1
f 117//54 116//53 160//105 161//106
f 131//85 130//84 162//107 163//108
f 130//84 126//80 164//109 162//107
f 129//83 132//86 165//110 166//111
f 134//91 128//82 167//112 168//113
f 128//82 127//81 169//114 167//112
f 127//81 17//90 156//115 169//114
f 101//92 134//91 168//113 153//116
f 116//53 118//56 170//117 160//105
f 125//79 124//74 171//118 172//119
f 124//74 117//54 161//106 171//118
f 118//56 129//83 166//111 170//117
f 126//80 125//79 172//119 164//109
f 132//86 131//85 163//108 165//110
usemtl Window
s off
f 9//120 8//120 144//120 173//120
f 79//12 78//12 148//12 174//12
f 32//12 31//12 175//12 141//12
f 97//12 79//12 174//12 176//12
f 141//9 175//9 177//9 149//9
f 174//121 148//121 150//121 178//121
f 75//122 9//122 173//122 179//122
f 76//123 75//123 179//123 143//123
f 83//124 82//124 180//124 145//124
f 85//34 84//34 181//34 151//34
f 21//125 20//125 152//125 182//125
f 82//126 30//126 183//126 180//126
f 30//127 29//127 146//127 183//127
f 98//12 97//12 176//12 184//12
f 84//128 21//128 182//128 181//128
f 31//12 98//12 184//12 175//12
f 175//36 184//36 185//36 177//36
f 184//36 176//36 174//36 178//36 185//36
s 1
f 144//129 143//130 179//131 173//132
f 146//133 145//134 180//135 183//136
f 150//137 149//138 177//139 185//140 178//141
f 152//142 151//143 181//144 182//145
f 158//146 159//147 167//112 169//114
f 157//148 154//149 153//116 168//113
f 155//150 158//146 169//114 156//115
f 159//147 157//148 168//113 167//112
f 162//107 164//109 172//119 171//118
f 165//110 163//108 161//106 160//105
f 163//108 162//107 171//118 161//106
f 166//111 165//110 160//105 170//117
usemtl Bumpers
s off
f 46//151 91//151 186//151 187//151
f 93//152 46//152 187//152 188//152
f 38//153 60//153 189//153 190//153
f 105//154 96//154 191//154 192//154
f 96//155 38//155 190//155 191//155
f 62//156 61//156 193//156 194//156
f 61//155 42//155 195//155 193//155
f 187//12 186//12 196//12 197//12
f 188//12 187//12 197//12 198//12
f 186//157 199//157 196//157
f 194//11 193//11 200//11 201//11
f 193//11 195//11 202//11 200//11
f 194//158 201//158 203//158
f 192//11 191//11 204//11 205//11
f 190//11 189//11 206//11 207//11
f 191//11 190//11 207//11 204//11
f 192//159 205//159 208//159
f 189//160 209//160 206//160
f 210//161 211//161 212//161
s 1
f 108//162 107//163 213//164 214//165
f 215//166 216//167 217//168 218//169
f 60//170 59//171 219//172 209//173
f 91//174 90//175 220//176 199//177
f 68//178 221//179 222//180 223//181
f 224//182 106//183 225//184
f 226//185 227//186 228//187 229//187
f 41//188 68//178 223//181 230//189
f 231//190 232//191 233//192 234//193
f 227//186 224//182 235//187 228//187
f 236//194 237//195 238//196 239//197
f 213//164 226//185 229//187
f 240//198 241//199 233//192 242//200
f 241//199 243//201 234//193 233//192
f 244//202 245//203 239//197 238//196
f 243//201 244//202 238//196 234//193
f 232//191 217//168 242//200 233//192
f 246//204 41//188 230//189 247//205
f 54//206 23//207 248//208 249//209
f 237//195 231//190 234//193 238//196
f 250//210 236//194 239//197 245//203
f 221//179 54//206 249//209 222//180
f 23//207 251//211 252//212 248//208
f 251//211 250//210 245//203 252//212
f 217//168 216//167 240//198 242//200
f 216//167 246//204 247//205 240//198
f 222//180 249//209 253//213 254//214
f 254//214 253//213 244//202 243//201
f 249//209 248//208 252//212 253//213
f 253//213 252//212 245//203 244//202
f 223//181 222//180 254//214 255//215
f 255//215 254//214 243//201 241//199
f 230//189 223//181 255//215 247//205
f 247//205 255//215 241//199 240//198
f 57//216 256//217 226//185 107//163
f 103//218 87//219 257//220 258//221
f 258//221 257//220 224//182 227//186
f 56//222 103//218 258//221 256//217
f 256//217 258//221 227//186 226//185
f 87//219 86//223 257//220
f 257//220 86//223 106//183 224//182
f 57//216 56//222 256//217
f 225//184 235//187 224//182
f 250//210 259//224 260//225 236//194
f 59//171 62//226 203//227 219//172
f 23//207 93//228 251//211
f 106//183 105//229 208//230 225//184
f 90//175 104//231 212//232 220//176
f 226//185 213//164 107//163
f 246//204 216//167 215//166 42//233
f 104//231 95//234 261//235 210//236
f 95//234 50//237 262//238 261//235
f 42//233 215//166 263//239 195//240
f 259//224 93//228 188//241 264//242
f 50//237 108//162 265//243 262//238
f 264//242 188//241 198//12 266//244
f 199//177 186//245 91//174
f 259//224 264//242 260//225
f 264//242 266//244 260//225
f 195//240 263//239 267//246 202//11
f 218//169 263//239 215//166
f 263//239 218//169 267//246
f 42//233 41//188 246//204
f 251//211 93//228 259//224 250//210
f 62//226 194//247 203//227
f 105//229 192//248 208//230
f 209//173 189//249 60//170
f 214//165 265//243 108//162
f 262//238 265//243 268//250 269//12
f 261//235 262//238 269//12 270//12
f 210//236 261//235 270//12 211//251
f 265//243 214//165 268//250
f 104//231 210//236 212//232
usemtl Lights
s off
f 66//252 70//252 69//252 67//252
f 52//253 51//253 55//253 64//253
usemtl Bottom
f 271//254 235//254 225//254 208//254
f 272//254 229//254 228//254 273//254
f 274//254 275//254 276//254 277//254
f 278//254 279//254 219//254 203//254
f 277//254 276//254 279//254 278//254
f 273//254 228//254 235//254 271//254
f 199//254 220//254 275//254 274//254
f 214//254 213//254 229//254 272//254
f 236//254 260//254 280//254 237//254
f 231//254 281//254 282//254 232//254
f 232//254 282//254 218//254 217//254
f 237//254 280//254 281//254 231//254
f 260//254 199//254 274//254 280//254
f 281//254 277//254 278//254 282//254
f 282//254 278//254 203//254 218//254
f 280//254 274//254 277//254 281//254
f 212//254 214//254 272//254 283//254
f 284//254 273//254 271//254 285//254
f 283//254 272//254 273//254 284//254
f 285//254 271//254 208//254 209//254
f 279//254 285//254 209//254 219//254
f 275//254 283//254 284//254 276//254
f 276//254 284//254 285//254 279//254
f 220//254 212//254 283//254 275//254
